<svg width="40" height="40" viewBox="0 0 40 40" fill="none" xmlns="http://www.w3.org/2000/svg">
<circle cx="20" cy="20" r="19.5" fill="#111827" fill-opacity="0.6" stroke="white"/>
<path d="M14.7568 29.1667C16.3363 29.1667 17.6168 27.8862 17.6168 26.3067C17.6168 24.7271 16.3363 23.4467 14.7568 23.4467C13.1773 23.4467 11.8968 24.7271 11.8968 26.3067C11.8968 27.8862 13.1773 29.1667 14.7568 29.1667Z" stroke="white" stroke-width="1.5" stroke-linecap="round" stroke-linejoin="round"/>
<path d="M28.1037 16.2967V13.2167C28.1037 10.8334 26.6095 10.5034 25.097 10.9159L19.377 12.4742C18.332 12.7584 17.617 13.5834 17.617 14.775V16.7642V18.1025V26.2975" stroke="white" stroke-width="1.5" stroke-linecap="round" stroke-linejoin="round"/>
<path d="M28.1031 24.4V20" stroke="white" stroke-width="1.5" stroke-linecap="round" stroke-linejoin="round"/>
<path d="M25.243 27.2599C26.8225 27.2599 28.103 25.9795 28.103 24.3999C28.103 22.8204 26.8225 21.5399 25.243 21.5399C23.6635 21.5399 22.383 22.8204 22.383 24.3999C22.383 25.9795 23.6635 27.2599 25.243 27.2599Z" stroke="white" stroke-width="1.5" stroke-linecap="round" stroke-linejoin="round"/>
<path d="M17.617 17.7266L28.1037 14.8666" stroke="white" stroke-width="1.5" stroke-linecap="round" stroke-linejoin="round"/>
</svg>
