<svg width="40" height="40" viewBox="0 0 40 40" fill="none" xmlns="http://www.w3.org/2000/svg">
<circle cx="20" cy="20" r="19.5" fill="#111827" fill-opacity="0.6" stroke="white"/>
<path d="M15.875 10.75C15.1145 10.75 14.5 11.3645 14.5 12.125V25.875C14.5 26.3777 14.3668 26.8461 14.1305 27.25H27.5625C28.7012 27.25 29.625 26.3262 29.625 25.1875V12.125C29.625 11.3645 29.0105 10.75 28.25 10.75H15.875ZM11.75 28.625C10.2332 28.625 9 27.3918 9 25.875V14.875C9 13.3582 10.2332 12.125 11.75 12.125V13.5C10.9895 13.5 10.375 14.1145 10.375 14.875V25.875C10.375 26.6355 10.9895 27.25 11.75 27.25C12.5105 27.25 13.125 26.6355 13.125 25.875V12.125C13.125 10.6082 14.3582 9.375 15.875 9.375H28.25C29.7668 9.375 31 10.6082 31 12.125V25.1875C31 27.0867 29.4617 28.625 27.5625 28.625H11.75ZM25.5 12.8125C25.5 12.4344 25.8094 12.125 26.1875 12.125H27.5625C27.9406 12.125 28.25 12.4344 28.25 12.8125C28.25 13.1906 27.9406 13.5 27.5625 13.5H26.1875C25.8094 13.5 25.5 13.1906 25.5 12.8125ZM25.5 15.5625C25.5 15.1844 25.8094 14.875 26.1875 14.875H27.5625C27.9406 14.875 28.25 15.1844 28.25 15.5625C28.25 15.9406 27.9406 16.25 27.5625 16.25H26.1875C25.8094 16.25 25.5 15.9406 25.5 15.5625ZM25.5 18.3125C25.5 17.9344 25.8094 17.625 26.1875 17.625H27.5625C27.9406 17.625 28.25 17.9344 28.25 18.3125C28.25 18.6906 27.9406 19 27.5625 19H26.1875C25.8094 19 25.5 18.6906 25.5 18.3125ZM15.875 21.0625C15.875 20.6844 16.1844 20.375 16.5625 20.375H27.5625C27.9406 20.375 28.25 20.6844 28.25 21.0625C28.25 21.4406 27.9406 21.75 27.5625 21.75H16.5625C16.1844 21.75 15.875 21.4406 15.875 21.0625ZM15.875 23.8125C15.875 23.4344 16.1844 23.125 16.5625 23.125H27.5625C27.9406 23.125 28.25 23.4344 28.25 23.8125C28.25 24.1906 27.9406 24.5 27.5625 24.5H16.5625C16.1844 24.5 15.875 24.1906 15.875 23.8125ZM17.25 17.625H22.75V13.5H17.25V17.625ZM15.875 13.1562C15.875 12.5848 16.3348 12.125 16.9062 12.125H23.0938C23.6652 12.125 24.125 12.5848 24.125 13.1562V17.9688C24.125 18.5402 23.6652 19 23.0938 19H16.9062C16.3348 19 15.875 18.5402 15.875 17.9688V13.1562Z" fill="white"/>
</svg>
