<svg version="1.2" xmlns="http://www.w3.org/2000/svg" viewBox="0 0 32 32" width="32" height="32">
	<title>img-02-svg</title>
	<style>
		.s0 { fill: #000000 } 
	</style>
	<g id="Layer">
		<path id="Layer" fill-rule="evenodd" class="s0" d="m12.4 22.8v-6.3q0-0.3 0-0.5 0.1-0.3 0.2-0.5 0.2-0.3 0.4-0.4 0.2-0.2 0.4-0.3 0.3-0.2 0.5-0.2 0.3-0.1 0.5-0.1 0.3 0.1 0.6 0.1 0.2 0.1 0.4 0.3l4.5 3.2c0.5 0.3 0.8 0.9 0.8 1.5 0 0.7-0.3 1.3-0.8 1.6l-4.5 3.2q-0.2 0.2-0.4 0.2-0.3 0.1-0.6 0.2-0.2 0-0.5-0.1-0.2 0-0.5-0.2c-0.6-0.3-1-1-1-1.7zm0.6 0q0 0.2 0.1 0.4 0 0.1 0.1 0.3 0.1 0.1 0.2 0.3 0.2 0.1 0.3 0.2 0.2 0 0.3 0.1 0.2 0 0.4 0 0.2 0 0.3-0.1 0.2 0 0.4-0.1l4.4-3.2c0.4-0.2 0.6-0.6 0.6-1.1 0-0.4-0.2-0.8-0.6-1l-4.4-3.2q-0.4-0.2-0.8-0.2-0.3 0-0.6 0.1c-0.4 0.3-0.7 0.7-0.7 1.2z"/>
		<path id="Layer" fill-rule="evenodd" class="s0" d="m27.3 2q0.9 0.4 1.6 1.1 0.7 0.7 1.1 1.6 0.3 0.9 0.3 1.9v18.8q0 1-0.3 1.9-0.4 0.9-1.1 1.6-0.7 0.7-1.6 1.1-0.9 0.3-1.9 0.3h-18.8q-1 0-1.9-0.3-0.9-0.4-1.6-1.1-0.7-0.7-1.1-1.6-0.3-0.9-0.3-1.9v-18.8q0-0.8 0.2-1.6 0.3-0.7 0.7-1.4 0.5-0.6 1.2-1 0.6-0.5 1.4-0.7 0.1-0.1 0.3-0.1 0.2-0.1 0.4-0.1 0.1 0 0.3 0 0.2 0 0.4 0h18.8q1 0 1.9 0.3zm2.1 2.9q-0.4-0.7-1-1.3-0.6-0.6-1.3-1-0.8-0.3-1.7-0.3h-2c2.6 4.6 3.4 6.1 3.7 6.7h2.6v-2.4q0-0.9-0.3-1.7zm-8.9 4.1c-0.6-1.1-2.5-4.4-3.7-6.7h-5.2c2.6 4.6 3.4 6.1 3.7 6.7zm5.9 0c-0.6-1.1-2.5-4.4-3.8-6.7h-5.1c2.6 4.6 3.4 6.1 3.7 6.7zm-19.8-6.7q-0.1 0-0.2 0-0.1 0-0.2 0-0.1 0.1-0.2 0.1-0.1 0-0.2 0c2.5 4.5 3.3 6 3.6 6.6h5.2c-0.6-1.1-2.5-4.4-3.7-6.7zm-2.6 0.9q-0.5 0.4-0.9 0.9-0.4 0.6-0.6 1.2-0.2 0.6-0.2 1.3v2.4h6.4c-0.5-1-2.3-4.1-3.6-6.4q-0.6 0.2-1.1 0.6zm25.7 6.4h-27.4v15.8q0 0.9 0.3 1.7 0.4 0.7 1 1.3 0.6 0.6 1.3 1 0.8 0.3 1.7 0.3h18.8q0.9 0 1.7-0.3 0.7-0.4 1.3-1 0.6-0.6 1-1.3 0.3-0.8 0.3-1.7z"/>
	</g>
</svg>