<svg xmlns="http://www.w3.org/2000/svg" version="1.1" xmlns:xlink="http://www.w3.org/1999/xlink" width="512" height="512" x="0" y="0" viewBox="0 0 32 32" style="enable-background:new 0 0 512 512" xml:space="preserve" class=""><g><path d="M13.416 24.541a1.94 1.94 0 0 0 2.011-.138l4.489-3.172c.521-.368.82-.945.82-1.583 0-.639-.299-1.216-.82-1.585l-4.489-3.172a1.93 1.93 0 0 0-2.011-.138 1.933 1.933 0 0 0-1.048 1.722v6.344c0 .727.402 1.387 1.048 1.722zm-.398-8.067c0-.491.26-.919.696-1.145.191-.099.395-.148.597-.148.259 0 .515.081.741.24l4.489 3.172c.347.245.545.629.545 1.053s-.199.808-.545 1.053l-4.489 3.172a1.271 1.271 0 0 1-1.337.092 1.268 1.268 0 0 1-.697-1.146z" fill="#3f3f97" opacity="1" data-original="#000000" class=""></path><path d="M25.44 1.675H6.56a4.61 4.61 0 0 0-1.38.203h-.001l-.002.001-.005.001-.002.002A4.895 4.895 0 0 0 1.675 6.56v18.88a4.89 4.89 0 0 0 4.885 4.885h18.88a4.89 4.89 0 0 0 4.885-4.885V6.56a4.89 4.89 0 0 0-4.885-4.885zm4.235 4.885v2.405h-2.623c-.248-.545-1.059-2.092-3.653-6.64h2.041a4.24 4.24 0 0 1 4.235 4.235zM15.262 8.965c-.248-.545-1.059-2.092-3.653-6.64h5.152c1.276 2.235 3.152 5.571 3.706 6.64zm5.901 0c-.248-.545-1.059-2.092-3.653-6.64h5.142c1.276 2.235 3.152 5.571 3.706 6.64zm-10.302-6.64c1.276 2.235 3.152 5.571 3.706 6.64H9.372c-.249-.547-1.052-2.086-3.604-6.557a4.1 4.1 0 0 1 .792-.083zm-5.742.256C6.428 4.875 8.152 7.95 8.677 8.965H2.325V6.56a4.247 4.247 0 0 1 2.794-3.979zM29.675 25.44a4.24 4.24 0 0 1-4.235 4.235H6.56a4.24 4.24 0 0 1-4.235-4.235V9.615h27.35z" fill="#3f3f97" opacity="1" data-original="#000000" class=""></path></g></svg>